<svg width="118" height="32" viewBox="0 0 118 32" fill="none" xmlns="http://www.w3.org/2000/svg">
<g clip-path="url(#clip0_911_791)">
<rect x="0.00159454" y="4" width="26" height="26" rx="13" fill="url(#paint0_linear_911_791)"/>
<rect width="22" height="0.0590909" transform="matrix(1 0 0 -1 1.99556 25.0004)" fill="white"/>
<g style="mix-blend-mode:plus-lighter">
<rect width="9.45455" height="0.118182" transform="matrix(1 0 0 -1 8.27716 25.2727)" fill="white"/>
</g>
<g style="mix-blend-mode:lighten" filter="url(#filter0_f_911_791)">
<ellipse cx="12.4119" cy="25.8635" rx="4.13636" ry="1.77273" fill="white"/>
</g>
<g style="mix-blend-mode:lighten" filter="url(#filter1_f_911_791)">
<ellipse cx="13.5865" cy="25.8635" rx="4.13636" ry="1.77273" fill="white"/>
</g>
<g clip-path="url(#clip1_911_791)">
<circle cx="13.0032" cy="16.9998" r="13" fill="#CBB5FA"/>
</g>
</g>
<path d="M36.2598 25V7.72H38.7678V22.636H46.5918V25H36.2598ZM53.5132 25.348C52.6172 25.348 51.8652 25.204 51.2572 24.916C50.6492 24.628 50.1532 24.252 49.7692 23.788C49.3932 23.316 49.1052 22.804 48.9052 22.252C48.7052 21.7 48.5692 21.16 48.4972 20.632C48.4252 20.104 48.3892 19.64 48.3892 19.24V12.04H50.9332V18.412C50.9332 18.916 50.9732 19.436 51.0532 19.972C51.1412 20.5 51.3012 20.992 51.5332 21.448C51.7732 21.904 52.1052 22.272 52.5292 22.552C52.9612 22.832 53.5212 22.972 54.2092 22.972C54.6572 22.972 55.0812 22.9 55.4812 22.756C55.8812 22.604 56.2292 22.364 56.5252 22.036C56.8292 21.708 57.0652 21.276 57.2332 20.74C57.4092 20.204 57.4972 19.552 57.4972 18.784L59.0572 19.372C59.0572 20.548 58.8372 21.588 58.3972 22.492C57.9572 23.388 57.3252 24.088 56.5012 24.592C55.6772 25.096 54.6812 25.348 53.5132 25.348ZM57.7972 25V21.256H57.4972V12.04H60.0292V25H57.7972ZM78.9228 25L78.9348 16.924C78.9348 15.988 78.6948 15.26 78.2148 14.74C77.7348 14.212 77.1028 13.948 76.3188 13.948C75.8388 13.948 75.3988 14.06 74.9988 14.284C74.6068 14.5 74.2868 14.828 74.0388 15.268C73.7988 15.7 73.6788 16.244 73.6788 16.9L72.4668 16.288C72.4508 15.376 72.6428 14.576 73.0428 13.888C73.4508 13.2 74.0028 12.668 74.6988 12.292C75.3948 11.908 76.1748 11.716 77.0388 11.716C78.4388 11.716 79.5228 12.136 80.2908 12.976C81.0588 13.816 81.4428 14.932 81.4428 16.324L81.4308 25H78.9228ZM63.3828 25V12.04H65.6148V15.784H65.9028V25H63.3828ZM71.1588 25L71.1708 16.972C71.1708 16.028 70.9308 15.288 70.4508 14.752C69.9788 14.216 69.3428 13.948 68.5428 13.948C67.7508 13.948 67.1108 14.22 66.6228 14.764C66.1428 15.308 65.9028 16.02 65.9028 16.9L64.7028 16.132C64.7028 15.284 64.9068 14.528 65.3148 13.864C65.7228 13.2 66.2748 12.676 66.9708 12.292C67.6668 11.908 68.4548 11.716 69.3348 11.716C70.2548 11.716 71.0388 11.912 71.6868 12.304C72.3348 12.688 72.8268 13.228 73.1628 13.924C73.5068 14.62 73.6788 15.428 73.6788 16.348L73.6668 25H71.1588ZM84.7989 9.916V7.48H87.3069V9.916H84.7989ZM84.7989 25V12.04H87.3069V25H84.7989ZM94.5705 25.36C93.6105 25.36 92.8065 25.184 92.1585 24.832C91.5105 24.472 91.0185 24 90.6825 23.416C90.3545 22.824 90.1905 22.176 90.1905 21.472C90.1905 20.816 90.3065 20.24 90.5385 19.744C90.7705 19.248 91.1145 18.828 91.5705 18.484C92.0265 18.132 92.5865 17.848 93.2505 17.632C93.8265 17.464 94.4785 17.316 95.2065 17.188C95.9345 17.06 96.6985 16.94 97.4985 16.828C98.3065 16.716 99.1065 16.604 99.8985 16.492L98.9865 16.996C99.0025 15.98 98.7865 15.228 98.3385 14.74C97.8985 14.244 97.1385 13.996 96.0585 13.996C95.3785 13.996 94.7545 14.156 94.1865 14.476C93.6185 14.788 93.2225 15.308 92.9985 16.036L90.6585 15.316C90.9785 14.204 91.5865 13.32 92.4825 12.664C93.3865 12.008 94.5865 11.68 96.0825 11.68C97.2425 11.68 98.2505 11.88 99.1065 12.28C99.9705 12.672 100.602 13.296 101.002 14.152C101.21 14.576 101.338 15.024 101.386 15.496C101.434 15.968 101.458 16.476 101.458 17.02V25H99.2385V22.036L99.6705 22.42C99.1345 23.412 98.4505 24.152 97.6185 24.64C96.7945 25.12 95.7785 25.36 94.5705 25.36ZM95.0145 23.308C95.7265 23.308 96.3385 23.184 96.8505 22.936C97.3625 22.68 97.7745 22.356 98.0865 21.964C98.3985 21.572 98.6025 21.164 98.6985 20.74C98.8345 20.356 98.9105 19.924 98.9265 19.444C98.9505 18.964 98.9625 18.58 98.9625 18.292L99.7785 18.592C98.9865 18.712 98.2665 18.82 97.6185 18.916C96.9705 19.012 96.3825 19.108 95.8545 19.204C95.3345 19.292 94.8705 19.4 94.4625 19.528C94.1185 19.648 93.8105 19.792 93.5385 19.96C93.2745 20.128 93.0625 20.332 92.9025 20.572C92.7505 20.812 92.6745 21.104 92.6745 21.448C92.6745 21.784 92.7585 22.096 92.9265 22.384C93.0945 22.664 93.3505 22.888 93.6945 23.056C94.0385 23.224 94.4785 23.308 95.0145 23.308ZM113.671 25V18.628C113.671 18.124 113.627 17.608 113.539 17.08C113.459 16.544 113.299 16.048 113.059 15.592C112.827 15.136 112.495 14.768 112.063 14.488C111.639 14.208 111.083 14.068 110.395 14.068C109.947 14.068 109.523 14.144 109.123 14.296C108.723 14.44 108.371 14.676 108.067 15.004C107.771 15.332 107.535 15.764 107.359 16.3C107.191 16.836 107.107 17.488 107.107 18.256L105.547 17.668C105.547 16.492 105.767 15.456 106.207 14.56C106.647 13.656 107.279 12.952 108.103 12.448C108.927 11.944 109.923 11.692 111.091 11.692C111.987 11.692 112.739 11.836 113.347 12.124C113.955 12.412 114.447 12.792 114.823 13.264C115.207 13.728 115.499 14.236 115.699 14.788C115.899 15.34 116.035 15.88 116.107 16.408C116.179 16.936 116.215 17.4 116.215 17.8V25H113.671ZM104.563 25V12.04H106.807V15.784H107.107V25H104.563Z" fill="#050A1B"/>
<defs>
<filter id="filter0_f_911_791" x="7.33011" y="23.1454" width="10.1636" height="5.43632" filterUnits="userSpaceOnUse" color-interpolation-filters="sRGB">
<feFlood flood-opacity="0" result="BackgroundImageFix"/>
<feBlend mode="normal" in="SourceGraphic" in2="BackgroundImageFix" result="shape"/>
<feGaussianBlur stdDeviation="0.472727" result="effect1_foregroundBlur_911_791"/>
</filter>
<filter id="filter1_f_911_791" x="8.50465" y="23.1454" width="10.1636" height="5.43632" filterUnits="userSpaceOnUse" color-interpolation-filters="sRGB">
<feFlood flood-opacity="0" result="BackgroundImageFix"/>
<feBlend mode="normal" in="SourceGraphic" in2="BackgroundImageFix" result="shape"/>
<feGaussianBlur stdDeviation="0.472727" result="effect1_foregroundBlur_911_791"/>
</filter>
<linearGradient id="paint0_linear_911_791" x1="13.5016" y1="4" x2="13.0016" y2="26.1591" gradientUnits="userSpaceOnUse">
<stop stop-color="#86BDFE"/>
<stop offset="0.569439" stop-color="#CBB5FA"/>
<stop offset="0.804993" stop-color="#E5D9FF"/>
<stop offset="1" stop-color="white"/>
</linearGradient>
<clipPath id="clip0_911_791">
<rect width="26" height="26" fill="white" transform="translate(0 4)"/>
</clipPath>
<clipPath id="clip1_911_791">
<rect width="26" height="5" fill="white" transform="translate(0.00159454 25)"/>
</clipPath>
</defs>
</svg>
